<svg width="146" height="23" viewBox="0 0 146 23" fill="none" xmlns="http://www.w3.org/2000/svg">
<path d="M12.1383 0L14.9297 8.59122H23.9631L16.655 13.9009L19.4464 22.4921L12.1383 17.1824L4.83015 22.4921L7.62161 13.9009L0.313477 8.59122H9.34682L12.1383 0Z" fill="#E42234"/>
<path d="M42.5692 0L45.3606 8.59122H54.394L47.0859 13.9009L49.8773 22.4921L42.5692 17.1824L35.2611 22.4921L38.0525 13.9009L30.7444 8.59122H39.7777L42.5692 0Z" fill="#E42234"/>
<path d="M72.9999 0L75.7913 8.59122H84.8247L77.5165 13.9009L80.308 22.4921L72.9999 17.1824L65.6917 22.4921L68.4832 13.9009L61.175 8.59122H70.2084L72.9999 0Z" fill="#E42234"/>
<path d="M103.431 0L106.222 8.59122H115.256L107.947 13.9009L110.739 22.4921L103.431 17.1824L96.1226 22.4921L98.9141 13.9009L91.606 8.59122H100.639L103.431 0Z" fill="#E42234"/>
<path d="M133.861 0L136.653 8.59122H145.686L138.378 13.9009L141.17 22.4921L133.861 17.1824L126.553 22.4921L129.345 13.9009L122.037 8.59122H131.07L133.861 0Z" fill="#E42234"/>
</svg>
