<svg width="312" height="80" viewBox="0 0 312 80" fill="none" xmlns="http://www.w3.org/2000/svg">
<path d="M10.8617 9.70022C10.1552 10.2175 6.43105 15.1996 5.80564 16.3977C5.31658 17.3507 5.45221 18.3034 6.10489 18.7664C6.8932 19.3383 6.94738 19.311 7.92586 18.4941C8.524 18.0041 8.9047 17.2688 9.31231 15.8804C9.77446 14.4101 10.1552 13.7297 11.0522 12.8582C12.4114 11.5244 13.6618 9.8906 13.6618 9.45486C13.6618 8.91063 11.6231 9.07371 10.8617 9.70022Z" fill="#223578"/>
<path d="M10.8617 9.70022C10.1552 10.2175 6.43105 15.1996 5.80564 16.3977C5.31658 17.3507 5.45221 18.3034 6.10489 18.7664C6.8932 19.3383 6.94738 19.311 7.92586 18.4941C8.524 18.0041 8.9047 17.2688 9.31231 15.8804C9.77446 14.4101 10.1552 13.7297 11.0522 12.8582C12.4114 11.5244 13.6618 9.8906 13.6618 9.45486C13.6618 8.91063 11.6231 9.07371 10.8617 9.70022Z" fill="#223578"/>
<path d="M33.6657 10.8159C33.9104 11.6055 34.6169 12.7216 34.7801 12.5585C34.9161 12.4224 33.8286 10.2171 33.6111 10.2171C33.5297 10.2171 33.5569 10.489 33.6657 10.8159Z" fill="#223578"/>
<path d="M33.6657 10.8159C33.9104 11.6055 34.6169 12.7216 34.7801 12.5585C34.9161 12.4224 33.8286 10.2171 33.6111 10.2171C33.5297 10.2171 33.5569 10.489 33.6657 10.8159Z" fill="#223578"/>
<path d="M35.95 12.9409C35.95 13.6486 36.9016 14.8193 37.9073 15.3912C39.2938 16.1535 39.5112 15.9085 38.5055 14.6832C37.5812 13.5671 35.95 12.4506 35.95 12.9409Z" fill="#223578"/>
<path d="M35.95 12.9409C35.95 13.6486 36.9016 14.8193 37.9073 15.3912C39.2938 16.1535 39.5112 15.9085 38.5055 14.6832C37.5812 13.5671 35.95 12.4506 35.95 12.9409Z" fill="#223578"/>
<path d="M29.4796 17.0259C28.7185 17.2982 27.4408 17.8701 26.6798 18.2785C25.3748 19.0135 25.3206 19.095 25.4838 19.9392C25.5653 20.4019 25.81 21.1642 26.0274 21.5726C26.2449 21.9811 26.435 22.4984 26.435 22.6891C26.435 23.4787 27.3321 23.2606 29.072 22.0084C30.866 20.7288 30.9747 20.7015 32.687 20.7561C34.2909 20.8103 34.3996 20.783 33.9374 20.4019C33.5844 20.1569 32.7142 20.0208 31.4911 20.0208C29.7243 19.9935 29.6156 19.9665 30.2406 19.6396C30.6213 19.4219 31.3551 19.1769 31.8718 19.0677C33.3938 18.7958 34.5901 18.36 34.5901 18.1424C34.5901 17.8155 32.0078 16.4813 31.4369 16.5086C31.1376 16.5086 30.2679 16.7536 29.4796 17.0259Z" fill="#223578"/>
<path d="M29.4796 17.0259C28.7185 17.2982 27.4408 17.8701 26.6798 18.2785C25.3748 19.0135 25.3206 19.095 25.4838 19.9392C25.5653 20.4019 25.81 21.1642 26.0274 21.5726C26.2449 21.9811 26.435 22.4984 26.435 22.6891C26.435 23.4787 27.3321 23.2606 29.072 22.0084C30.866 20.7288 30.9747 20.7015 32.687 20.7561C34.2909 20.8103 34.3996 20.783 33.9374 20.4019C33.5844 20.1569 32.7142 20.0208 31.4911 20.0208C29.7243 19.9935 29.6156 19.9665 30.2406 19.6396C30.6213 19.4219 31.3551 19.1769 31.8718 19.0677C33.3938 18.7958 34.5901 18.36 34.5901 18.1424C34.5901 17.8155 32.0078 16.4813 31.4369 16.5086C31.1376 16.5086 30.2679 16.7536 29.4796 17.0259Z" fill="#223578"/>
<path d="M12.0024 19.994C10.888 21.0832 10.3716 21.8455 10.1269 22.7439C9.93675 23.4247 9.69203 24.2416 9.55604 24.5954C9.42005 24.9492 9.31133 25.5758 9.31133 26.0111C9.31133 26.6373 9.44732 26.828 9.85493 26.828C10.1542 26.828 10.6163 26.6103 10.888 26.338C12.3831 24.8404 15.3731 23.8331 18.3089 23.8331C19.7495 23.8331 20.9185 23.3431 21.1087 22.6624C21.1905 22.3355 21.272 21.4917 21.272 20.8109C21.272 19.8579 21.1633 19.4768 20.8098 19.3406C19.9673 18.9868 16.0258 18.3879 14.748 18.4152C13.6336 18.4422 13.3889 18.6056 12.0024 19.994ZM16.5967 20.9744C16.841 21.2194 16.4607 21.4101 15.4004 21.5732C14.8022 21.6551 13.6878 22.0363 12.8995 22.3901C11.2414 23.1797 10.8338 23.0435 11.7581 22.0632C12.818 20.9471 15.8898 20.2663 16.5967 20.9744ZM16.3789 22.1994C16.3789 22.3355 16.1345 22.4716 15.8353 22.4716C15.5364 22.4716 14.8568 22.6624 14.3404 22.8528C13.2256 23.3431 13.0627 22.9347 14.1499 22.3628C14.9928 21.9001 16.3789 21.7913 16.3789 22.1994Z" fill="#223578"/>
<path d="M12.0024 19.994C10.888 21.0832 10.3716 21.8455 10.1269 22.7439C9.93675 23.4247 9.69203 24.2416 9.55604 24.5954C9.42005 24.9492 9.31133 25.5758 9.31133 26.0111C9.31133 26.6373 9.44732 26.828 9.85493 26.828C10.1542 26.828 10.6163 26.6103 10.888 26.338C12.3831 24.8404 15.3731 23.8331 18.3089 23.8331C19.7495 23.8331 20.9185 23.3431 21.1087 22.6624C21.1905 22.3355 21.272 21.4917 21.272 20.8109C21.272 19.8579 21.1633 19.4768 20.8098 19.3406C19.9673 18.9868 16.0258 18.3879 14.748 18.4152C13.6336 18.4422 13.3889 18.6056 12.0024 19.994ZM16.5967 20.9744C16.841 21.2194 16.4607 21.4101 15.4004 21.5732C14.8022 21.6551 13.6878 22.0363 12.8995 22.3901C11.2414 23.1797 10.8338 23.0435 11.7581 22.0632C12.818 20.9471 15.8898 20.2663 16.5967 20.9744ZM16.3789 22.1994C16.3789 22.3355 16.1345 22.4716 15.8353 22.4716C15.5364 22.4716 14.8568 22.6624 14.3404 22.8528C13.2256 23.3431 13.0627 22.9347 14.1499 22.3628C14.9928 21.9001 16.3789 21.7913 16.3789 22.1994Z" fill="#223578"/>
<path d="M34.8633 20.2367C34.8633 20.6178 35.7062 21.6524 36.0323 21.6524C36.2498 21.6524 36.2498 21.5705 36.005 21.3255C35.8149 21.1351 35.6789 20.8897 35.6789 20.7809C35.6789 20.3182 36.3039 20.5905 37.0922 21.4343L37.9078 22.3328L37.7176 21.5162C37.6358 21.0805 37.4184 20.5359 37.2555 20.3725C36.9562 19.9913 34.8633 19.8825 34.8633 20.2367Z" fill="#223578"/>
<path d="M34.8633 20.2367C34.8633 20.6178 35.7062 21.6524 36.0323 21.6524C36.2498 21.6524 36.2498 21.5705 36.005 21.3255C35.8149 21.1351 35.6789 20.8897 35.6789 20.7809C35.6789 20.3182 36.3039 20.5905 37.0922 21.4343L37.9078 22.3328L37.7176 21.5162C37.6358 21.0805 37.4184 20.5359 37.2555 20.3725C36.9562 19.9913 34.8633 19.8825 34.8633 20.2367Z" fill="#223578"/>
<path d="M30.0775 22.0346C28.3921 22.7695 28.6365 23.1234 30.6752 22.933C31.7083 22.8241 33.0674 22.7422 33.7197 22.7422C35.0789 22.7422 35.2149 22.3611 34.019 21.9527C32.85 21.5446 31.1101 21.5988 30.0775 22.0346Z" fill="#223578"/>
<path d="M30.0775 22.0346C28.3921 22.7695 28.6365 23.1234 30.6752 22.933C31.7083 22.8241 33.0674 22.7422 33.7197 22.7422C35.0789 22.7422 35.2149 22.3611 34.019 21.9527C32.85 21.5446 31.1101 21.5988 30.0775 22.0346Z" fill="#223578"/>
<path d="M31.0537 24.6468C30.7548 24.8372 31.0537 24.9187 32.0595 24.9187C32.8205 24.9187 33.5546 24.7826 33.6361 24.6468C33.8535 24.2926 31.5973 24.2926 31.0537 24.6468Z" fill="#223578"/>
<path d="M31.0537 24.6468C30.7548 24.8372 31.0537 24.9187 32.0595 24.9187C32.8205 24.9187 33.5546 24.7826 33.6361 24.6468C33.8535 24.2926 31.5973 24.2926 31.0537 24.6468Z" fill="#223578"/>
<path d="M14.1204 26.1997C13.6855 26.6082 14.0117 26.8259 15.1265 26.8259C16.4584 26.8259 17.1922 26.6351 17.1922 26.254C17.1922 25.9817 14.3924 25.9274 14.1204 26.1997Z" fill="#223578"/>
<path d="M14.1204 26.1997C13.6855 26.6082 14.0117 26.8259 15.1265 26.8259C16.4584 26.8259 17.1922 26.6351 17.1922 26.254C17.1922 25.9817 14.3924 25.9274 14.1204 26.1997Z" fill="#223578"/>
<path d="M26.7105 27.5881C26.7105 27.9419 27.5257 29.0311 29.7277 31.5902C32.4188 34.7213 33.6693 35.9193 34.0227 35.7016C34.675 35.2932 33.3973 33.4144 30.4342 30.4195C27.7162 27.6969 26.7105 26.9346 26.7105 27.5881Z" fill="#223578"/>
<path d="M26.7105 27.5881C26.7105 27.9419 27.5257 29.0311 29.7277 31.5902C32.4188 34.7213 33.6693 35.9193 34.0227 35.7016C34.675 35.2932 33.3973 33.4144 30.4342 30.4195C27.7162 27.6969 26.7105 26.9346 26.7105 27.5881Z" fill="#223578"/>
<path d="M20.2397 28.2697C20.0768 28.4328 19.8862 28.9774 19.7775 29.4132L19.5874 30.23L20.1582 29.5493C20.4571 29.1682 20.7291 28.6509 20.7291 28.3786C20.7291 27.834 20.6204 27.8067 20.2397 28.2697Z" fill="#223578"/>
<path d="M20.2397 28.2697C20.0768 28.4328 19.8862 28.9774 19.7775 29.4132L19.5874 30.23L20.1582 29.5493C20.4571 29.1682 20.7291 28.6509 20.7291 28.3786C20.7291 27.834 20.6204 27.8067 20.2397 28.2697Z" fill="#223578"/>
<path d="M19.2607 31.4003C17.6568 33.0883 17.3034 34.1502 18.7985 32.7072L19.5869 31.9449L20.0217 32.7887C20.3206 33.3606 20.7828 33.7144 21.5438 33.9321C22.142 34.1229 22.7674 34.4225 22.9303 34.6402C23.4197 35.2121 24.0993 35.0486 25.0505 34.2044C25.5672 33.7417 26.3009 33.306 26.7358 33.2244C27.6059 33.0337 28.6117 31.9176 28.6117 31.1553C28.6117 30.0934 27.3612 29.685 23.9906 29.685H20.8642L19.2607 31.4003Z" fill="#223578"/>
<path d="M19.2607 31.4003C17.6568 33.0883 17.3034 34.1502 18.7985 32.7072L19.5869 31.9449L20.0217 32.7887C20.3206 33.3606 20.7828 33.7144 21.5438 33.9321C22.142 34.1229 22.7674 34.4225 22.9303 34.6402C23.4197 35.2121 24.0993 35.0486 25.0505 34.2044C25.5672 33.7417 26.3009 33.306 26.7358 33.2244C27.6059 33.0337 28.6117 31.9176 28.6117 31.1553C28.6117 30.0934 27.3612 29.685 23.9906 29.685H20.8642L19.2607 31.4003Z" fill="#223578"/>
<path d="M14.6113 36.274C13.6601 36.9005 13.6055 37.0093 14.0677 37.1997C15.3454 37.6901 16.3511 37.1724 16.3781 36.0017C16.3781 35.3755 15.889 35.4301 14.6113 36.274Z" fill="#223578"/>
<path d="M14.6113 36.274C13.6601 36.9005 13.6055 37.0093 14.0677 37.1997C15.3454 37.6901 16.3511 37.1724 16.3781 36.0017C16.3781 35.3755 15.889 35.4301 14.6113 36.274Z" fill="#223578"/>
<path d="M24.5348 37.0625C19.1526 37.7978 17.0593 38.5874 17.0593 39.9212C17.0593 40.8196 17.8207 40.7108 19.8322 39.4858C22.2513 38.0155 23.9366 37.6071 26.8452 37.8248C28.2043 37.9067 29.9984 38.179 30.8413 38.3693C32.4721 38.7778 33.016 38.5874 32.4179 37.8521C32.119 37.4982 30.6238 37.1171 28.3403 36.8175C27.824 36.7359 26.1114 36.8448 24.5348 37.0625Z" fill="#223578"/>
<path d="M24.5348 37.0625C19.1526 37.7978 17.0593 38.5874 17.0593 39.9212C17.0593 40.8196 17.8207 40.7108 19.8322 39.4858C22.2513 38.0155 23.9366 37.6071 26.8452 37.8248C28.2043 37.9067 29.9984 38.179 30.8413 38.3693C32.4721 38.7778 33.016 38.5874 32.4179 37.8521C32.119 37.4982 30.6238 37.1171 28.3403 36.8175C27.824 36.7359 26.1114 36.8448 24.5348 37.0625Z" fill="#223578"/>
<path d="M22.2207 39.7582C21.0247 39.9759 20.019 40.1394 19.9917 40.1394C19.6928 40.2209 20.019 41.0105 20.5899 41.5278C21.2422 42.1539 21.2967 42.1539 23.6071 41.8274C26.1353 41.4732 28.6089 40.4386 28.6089 39.7582C28.6089 39.2409 25.4284 39.2409 22.2207 39.7582Z" fill="#223578"/>
<path d="M22.2207 39.7582C21.0247 39.9759 20.019 40.1394 19.9917 40.1394C19.6928 40.2209 20.019 41.0105 20.5899 41.5278C21.2422 42.1539 21.2967 42.1539 23.6071 41.8274C26.1353 41.4732 28.6089 40.4386 28.6089 39.7582C28.6089 39.2409 25.4284 39.2409 22.2207 39.7582Z" fill="#223578"/>
<path fill-rule="evenodd" clip-rule="evenodd" d="M21.1336 0.607939L18.6376 0.186263C18.1859 0.0457046 17.1696 -0.151078 16.7179 0.186263C16.2662 0.523604 15.2165 0.898438 14.748 1.04369L11.2117 2.87901C10.4075 3.28006 8.62439 4.17383 7.92586 4.5405C7.24357 4.89865 6.14819 5.70413 5.31294 6.31833C5.07928 6.49015 4.86597 6.64701 4.68776 6.77491C4.03559 7.24298 3.87254 8.75657 3.87254 9.45486C3.94502 9.61749 4.08998 10.1174 4.08998 10.8159C4.08998 11.5144 3.38312 12.5236 3.02969 12.9409V15.147L1.52979 19.3406C1.30168 20.2939 0.982327 22.4451 1.52979 23.4236C1.91939 24.12 1.89431 26.008 1.8704 27.8069C1.85232 29.1676 1.83492 30.4773 1.99821 31.1815C1.95497 30.9047 2.0542 30.6627 2.29593 30.4207C2.73081 29.9853 3.60057 30.0122 3.60057 30.4207C3.57329 30.6114 3.32858 31.0741 3.02969 31.4283C2.56754 31.9999 2.43155 32.0272 2.21411 31.7003C2.71201 34.0585 3.85645 39.0014 4.51643 40.2345C4.52349 40.247 4.5306 40.2596 4.53775 40.2725C4.54252 40.281 4.54732 40.2897 4.55213 40.2984C4.73754 40.6341 4.9522 41.0838 5.23136 41.6926C6.04694 43.4621 6.45491 44.034 7.16141 44.3879C8.35769 45.014 9.03728 45.6132 9.03728 46.0759L10.8617 49.6298L12.408 52.3225L12.5708 54.2975C12.5708 54.2978 12.5709 54.298 12.5709 54.2983C12.5709 54.4344 12.3807 55.0605 12.136 55.714C11.9185 56.3674 11.6466 57.2116 11.5924 57.5654C11.4291 58.355 10.4779 60.288 9.90704 60.9142C8.33906 62.956 5.07291 67.214 4.55213 67.9112C4.03136 68.6084 2.61332 69.1094 1.9694 69.2727C1.9694 69.4089 1.48035 69.8988 0.854933 70.3346C0.229885 70.7973 -0.123547 71.233 0.039715 71.3419C0.202613 71.4234 0.338604 71.723 0.338604 71.968C0.338604 72.2403 1.04547 72.8664 1.9425 73.4656C4.44342 75.0717 9.36344 77.4951 9.98849 77.4132C10.5052 77.3316 10.5321 77.114 10.6681 70.7973C10.7495 67.2036 10.8855 64.1268 10.9942 63.9637C11.2117 63.6368 12.0273 58.7362 12.0273 57.6743C12.0273 57.2385 12.272 56.6124 12.5709 56.2313L13.1145 55.5505L13.7399 56.3674C14.066 56.8032 14.6369 57.5381 15.0445 57.9739C15.6968 58.7089 15.7514 58.7362 16.2135 58.2462C16.6211 57.865 16.7844 57.8377 17.1647 58.0827C17.4094 58.2731 18.0076 58.6816 18.497 58.9812C19.1493 59.4169 19.3122 59.6346 19.0948 59.9069C18.8773 60.1792 19.0948 60.3969 20.0464 60.8599C21.1881 61.4042 21.2695 61.5134 21.2695 62.5207C21.2695 63.5552 21.8131 64.4537 22.656 64.726C22.9276 64.8075 22.8462 65.0798 22.3026 65.7332C21.4597 66.7136 21.5142 67.0674 22.656 67.9112C23.6886 68.6739 23.4443 69.082 22.0851 68.8643C20.8074 68.6466 19.6384 69.2727 19.6384 70.1438C19.6384 70.6338 19.7471 70.6884 20.3998 70.5523C21.9491 70.1984 23.6886 70.0623 24.1239 70.2257C24.5315 70.3619 24.5315 70.4707 23.9879 71.2873C22.248 73.8741 20.3725 79.1285 20.9434 79.7004C21.1881 79.9454 21.4324 79.8639 21.8946 79.4281C22.248 79.1012 22.6287 78.8293 22.7916 78.8293C22.9276 78.8293 23.3625 78.557 23.7432 78.2028C24.5042 77.5766 26.9779 71.9953 26.9779 70.9334C26.9779 70.525 27.1139 70.3888 27.3586 70.4707C27.5487 70.5523 27.8476 70.498 28.0109 70.3346C28.1469 70.1984 27.8749 71.0696 27.3586 72.3222C26.0267 75.6709 25.4285 78.3389 25.8634 79.2647L26.1896 80L28.7992 79.8366C30.2126 79.7546 31.5176 79.5643 31.6536 79.4281C31.8437 79.2374 31.6805 78.8293 31.1914 78.1758C30.2126 76.8959 29.4243 74.7179 29.4243 73.3022C29.4243 72.3491 29.5603 72.0226 30.2398 71.4234C31.2729 70.498 32.1699 70.3619 34.3988 70.7157C35.4046 70.8792 36.3016 70.9334 36.3834 70.8519C36.4649 70.77 36.1929 70.1984 35.7853 69.5993C35.2417 68.7827 34.9155 68.5104 34.5621 68.6193C34.4817 68.6412 34.3914 68.6651 34.2978 68.6899C34.0428 68.7574 33.7622 68.8317 33.5832 68.8916C33.3116 68.9458 32.9309 68.9189 32.7408 68.7827C32.4688 68.6193 32.5506 68.4558 33.0669 68.102C34.0185 67.5032 33.9639 66.8766 32.8222 65.4609C32.3059 64.8075 31.871 64.0725 31.871 63.8275C31.871 63.5825 32.9309 62.548 34.2628 61.513C37.6881 58.7904 38.884 57.647 40.0803 55.9047C40.1407 55.8144 40.1987 55.7274 40.2543 55.6439C40.8022 54.8215 41.1212 54.3427 41.3738 54.3764C41.7259 54.4233 41.9489 55.4657 42.4828 57.9608C42.5228 58.1475 42.5645 58.3423 42.6081 58.5454C43.3149 61.7853 43.8313 63.8002 44.5109 65.8967C44.7014 66.4955 45.0003 68.2654 45.1904 69.8446C45.5984 73.7106 45.8431 74.8814 46.1962 74.8267C46.9576 74.6637 52.0678 71.2057 53.7531 69.7085C58.1296 65.7878 61.6362 61.8126 60.9025 61.5403C60.7119 61.4861 57.4231 61.3772 53.563 61.3499L46.6042 61.268L45.5439 60.4242C44.5109 59.58 42.6899 56.3674 42.3365 54.7882L42.2005 54.0533C42.7777 52.617 44.079 49.286 44.6662 47.4526C45.2534 45.6193 45.9574 43.7095 46.2359 42.9838C46.4825 41.7024 46.9084 40.6019 47.4197 40.0046L48.235 39.0788C48.4343 38.6699 48.937 37.6451 49.3525 36.8175C49.768 35.9898 49.9767 31.7181 50.029 29.6857C49.1865 27.072 48.6157 24.6759 48.8331 24.4582L47.8815 21.9527C48.09 21.5538 48.507 20.5328 48.507 19.6396C48.507 18.7464 48.3273 16.6407 48.2374 15.6995C48.0764 15.3642 48.2477 14.8644 48.506 14.111C48.5742 13.9119 48.6485 13.6951 48.7244 13.459L49.3225 11.6075L48.7517 10.5999C48.5076 10.2062 48.3784 9.94121 48.344 9.75412L45.2873 4.71238C44.6097 4.21584 43.1079 3.14256 42.5207 2.82172C41.9335 2.50088 40.3563 2.68804 39.6412 2.82172L35.95 2.36338C34.7135 2.72224 31.4106 2.21386 29.9137 1.91481C29.7235 2.6771 38.6396 4.63741 39.3192 3.95667C40.1344 3.14015 42.4994 4.17473 44.0218 6.05313C44.5927 6.76117 45.5439 7.87729 46.1693 8.55803C46.7943 9.23877 47.3925 10.0557 47.5554 10.3549C47.9088 11.1445 47.7728 12.8598 47.3107 13.4317C46.5769 14.2482 46.4954 15.0924 46.9576 17.0527C47.2292 18.1146 47.3652 19.013 47.2838 19.0946C47.202 19.2034 46.7129 18.9311 46.1962 18.55C45.1363 17.7335 44.6468 17.6515 44.6468 18.278C44.6468 18.4957 44.4567 18.8769 44.2392 19.0946C43.94 19.3942 43.8313 20.1291 43.8313 21.8172C43.8313 24.2132 43.6138 24.5671 42.8528 23.4236C42.6081 23.0425 42.2277 22.7429 42.0103 22.7429C41.6569 22.7429 41.6296 23.0152 41.7656 24.4309C42.4452 30.8837 43.043 34.8313 43.3695 35.2124C43.94 35.9205 45.5984 35.1582 46.0333 33.9875C46.3595 33.1433 46.7671 33.1979 46.9845 34.0963C47.0932 34.5321 47.4739 35.2124 47.8001 35.6209L48.4524 36.3832L47.8815 37.527C47.0663 39.1604 46.6042 39.5961 45.4079 39.9226C43.9945 40.3038 43.5597 39.9226 43.5324 38.2892C43.5051 37.6085 43.4237 36.7374 43.2877 36.3562L43.0975 35.6755L42.8801 36.4924C42.8037 36.7983 42.6871 37.3194 42.5773 37.8101L42.5773 37.8102L42.5767 37.8128C42.5305 38.0195 42.4855 38.2208 42.4452 38.3981C42.0645 40.0315 41.6296 40.7122 41.0046 40.7122C40.2162 40.7122 38.0415 43.1083 37.6335 44.4425C37.4433 45.0413 37.063 45.8582 36.7638 46.212C36.2474 46.7839 36.1929 46.8109 35.9482 46.3482C35.4591 45.5859 33.5832 45.7493 31.7077 46.7293C30.1584 47.5735 29.941 47.6004 26.4343 47.6824C25.8657 47.6977 25.2798 47.713 24.7164 47.7278L24.7129 47.7279L24.7039 47.7281L24.6962 47.7283L24.6937 47.7284L24.6924 47.7284L24.6907 47.7285L24.6872 47.7286C23.2691 47.7657 21.9984 47.799 21.5143 47.8185C20.6441 47.8727 19.8289 47.655 18.7413 47.1651C17.9261 46.7566 16.9204 46.4297 16.5397 46.4297C16.0233 46.4297 15.8059 46.2393 15.6699 45.7493C15.5881 45.3951 14.9903 44.6602 14.338 44.1429C13.6853 43.5983 12.897 42.6452 12.5981 41.9918C12.0273 40.7941 11.8098 38.2619 12.272 38.2619C12.5167 38.2619 13.3864 36.002 13.3864 35.3217C13.3864 35.0494 13.1145 34.9674 12.408 35.0494C11.4291 35.1309 11.4022 35.1036 11.0761 33.8513C10.7495 32.4898 9.71687 30.7476 8.52059 29.468C7.86827 28.76 7.81409 28.4334 7.65083 25.6562C7.56938 23.9682 7.37885 22.3345 7.27013 21.9806C7.10723 21.4633 7.16141 21.3272 7.62356 21.191C8.16716 21.0549 8.65658 20.3472 8.3846 20.1018C8.11298 19.8299 7.16141 20.6195 5.42189 22.5794C4.38887 23.7232 3.4373 24.649 3.2744 24.649C3.00242 24.649 3.08423 23.6686 3.49184 22.2256C3.65511 21.681 3.60056 21.5995 3.24713 21.7356C2.94824 21.8445 2.78498 21.7629 2.78498 21.5449C2.78498 21.3272 2.59482 21.1095 2.37738 21.0006C1.77923 20.7826 1.86068 20.5649 3.08424 19.0673C3.70928 18.305 4.38887 17.325 4.57904 16.8893C4.76957 16.4266 5.36735 15.637 5.88404 15.147C6.94397 14.1121 7.16141 13.5678 6.34619 14.0305C5.50334 14.4663 5.42189 14.3844 5.61206 13.2682C5.68344 12.9107 5.74306 12.4829 5.79104 12.1386C5.81613 11.9586 5.83804 11.8013 5.85677 11.6891C5.88404 11.3895 6.10148 10.8995 6.31892 10.6272C6.69926 10.1645 6.67235 10.1372 6.12876 10.2733C5.72078 10.3822 5.50334 10.328 5.50334 10.1099C5.50334 9.61991 6.07421 9.12993 6.64508 9.12993C7.27013 9.12993 7.27013 8.96647 6.56363 8.09535L5.99276 7.36L6.97124 6.48887C7.51484 5.99889 8.19443 5.59044 8.46641 5.59044C9.60815 5.59044 12.136 4.39242 13.1963 3.35784C13.8759 2.7044 14.7456 2.15981 15.5067 1.96942C16.295 1.75136 16.8117 1.42483 17.0018 1.04369C17.328 0.30834 17.6814 0.226799 17.8989 0.825998C18.1163 1.37022 18.8773 1.31598 21.1336 0.607939ZM8.05844 42.5364C8.90129 41.9103 8.3846 40.5761 6.61781 38.8065C5.77532 37.9623 4.93247 37.0366 4.74231 36.7374C4.44342 36.2743 4.41614 36.3562 4.55213 37.3089C4.79648 38.9427 5.80223 41.5837 6.40037 42.2641C7.05269 42.9721 7.37885 43.0264 8.05844 42.5364Z" fill="#223578"/>
<path d="M81.208 37.5493V17.1013H73.144V12.3493H95.104V17.1013H87.04V37.5493H81.208ZM97.5219 37.5493V12.3493H108.43C110.686 12.3493 112.63 12.7213 114.262 13.4653C115.894 14.1853 117.154 15.2293 118.042 16.5973C118.93 17.9653 119.374 19.5973 119.374 21.4933C119.374 23.3653 118.93 24.9853 118.042 26.3533C117.154 27.6973 115.894 28.7293 114.262 29.4493C112.63 30.1693 110.686 30.5293 108.43 30.5293H100.762L103.354 27.9733V37.5493H97.5219ZM113.542 37.5493L107.242 28.4053H113.47L119.842 37.5493H113.542ZM103.354 28.6213L100.762 25.8853H108.106C109.906 25.8853 111.25 25.5013 112.138 24.7333C113.026 23.9413 113.47 22.8613 113.47 21.4933C113.47 20.1013 113.026 19.0213 112.138 18.2533C111.25 17.4853 109.906 17.1013 108.106 17.1013H100.762L103.354 14.3293V28.6213ZM134.471 37.9813C130.895 37.9813 128.099 36.9853 126.083 34.9933C124.067 33.0013 123.059 30.1573 123.059 26.4613V12.3493H128.891V26.2453C128.891 28.6453 129.383 30.3733 130.367 31.4293C131.351 32.4853 132.731 33.0133 134.507 33.0133C136.283 33.0133 137.663 32.4853 138.647 31.4293C139.631 30.3733 140.123 28.6453 140.123 26.2453V12.3493H145.883V26.4613C145.883 30.1573 144.875 33.0013 142.859 34.9933C140.843 36.9853 138.047 37.9813 134.471 37.9813ZM150.926 37.5493V12.3493H155.75L166.478 30.1333H163.922L174.47 12.3493H179.258L179.33 37.5493H173.858L173.822 20.7373H174.83L166.406 34.8853H163.778L155.174 20.7373H156.398V37.5493H150.926ZM184.588 37.5493V12.3493H195.496C197.752 12.3493 199.696 12.7213 201.328 13.4653C202.96 14.1853 204.22 15.2293 205.108 16.5973C205.996 17.9653 206.44 19.5973 206.44 21.4933C206.44 23.3653 205.996 24.9853 205.108 26.3533C204.22 27.7213 202.96 28.7773 201.328 29.5213C199.696 30.2413 197.752 30.6013 195.496 30.6013H187.828L190.42 27.9733V37.5493H184.588ZM190.42 28.6213L187.828 25.8493H195.172C196.972 25.8493 198.316 25.4653 199.204 24.6973C200.092 23.9293 200.536 22.8613 200.536 21.4933C200.536 20.1013 200.092 19.0213 199.204 18.2533C198.316 17.4853 196.972 17.1013 195.172 17.1013H187.828L190.42 14.3293V28.6213ZM231.771 37.9813C229.827 37.9813 228.015 37.6693 226.335 37.0453C224.679 36.3973 223.239 35.4853 222.015 34.3093C220.791 33.1333 219.831 31.7533 219.135 30.1693C218.463 28.5853 218.127 26.8453 218.127 24.9493C218.127 23.0533 218.463 21.3133 219.135 19.7293C219.831 18.1453 220.791 16.7653 222.015 15.5893C223.263 14.4133 224.715 13.5133 226.371 12.8893C228.027 12.2413 229.839 11.9173 231.807 11.9173C233.991 11.9173 235.959 12.3013 237.711 13.0693C239.487 13.8133 240.975 14.9173 242.175 16.3813L238.431 19.8373C237.567 18.8533 236.607 18.1213 235.551 17.6413C234.495 17.1373 233.343 16.8853 232.095 16.8853C230.919 16.8853 229.839 17.0773 228.855 17.4613C227.871 17.8453 227.019 18.3973 226.299 19.1173C225.579 19.8373 225.015 20.6893 224.607 21.6733C224.223 22.6573 224.031 23.7493 224.031 24.9493C224.031 26.1493 224.223 27.2413 224.607 28.2253C225.015 29.2093 225.579 30.0613 226.299 30.7813C227.019 31.5013 227.871 32.0533 228.855 32.4373C229.839 32.8213 230.919 33.0133 232.095 33.0133C233.343 33.0133 234.495 32.7733 235.551 32.2933C236.607 31.7893 237.567 31.0333 238.431 30.0253L242.175 33.4813C240.975 34.9453 239.487 36.0613 237.711 36.8293C235.959 37.5973 233.979 37.9813 231.771 37.9813ZM257.106 37.9813C255.114 37.9813 253.266 37.6573 251.562 37.0093C249.882 36.3613 248.418 35.4493 247.17 34.2733C245.946 33.0973 244.986 31.7173 244.29 30.1333C243.618 28.5493 243.282 26.8213 243.282 24.9493C243.282 23.0773 243.618 21.3493 244.29 19.7653C244.986 18.1813 245.958 16.8013 247.206 15.6253C248.454 14.4493 249.918 13.5373 251.598 12.8893C253.278 12.2413 255.102 11.9173 257.07 11.9173C259.062 11.9173 260.886 12.2413 262.542 12.8893C264.222 13.5373 265.674 14.4493 266.898 15.6253C268.146 16.8013 269.118 18.1813 269.814 19.7653C270.51 21.3253 270.858 23.0533 270.858 24.9493C270.858 26.8213 270.51 28.5613 269.814 30.1693C269.118 31.7533 268.146 33.1333 266.898 34.3093C265.674 35.4613 264.222 36.3613 262.542 37.0093C260.886 37.6573 259.074 37.9813 257.106 37.9813ZM257.07 33.0133C258.198 33.0133 259.23 32.8213 260.166 32.4373C261.126 32.0533 261.966 31.5013 262.686 30.7813C263.406 30.0613 263.958 29.2093 264.342 28.2253C264.75 27.2413 264.954 26.1493 264.954 24.9493C264.954 23.7493 264.75 22.6573 264.342 21.6733C263.958 20.6893 263.406 19.8373 262.686 19.1173C261.99 18.3973 261.162 17.8453 260.202 17.4613C259.242 17.0773 258.198 16.8853 257.07 16.8853C255.942 16.8853 254.898 17.0773 253.938 17.4613C253.002 17.8453 252.174 18.3973 251.454 19.1173C250.734 19.8373 250.17 20.6893 249.762 21.6733C249.378 22.6573 249.186 23.7493 249.186 24.9493C249.186 26.1253 249.378 27.2173 249.762 28.2253C250.17 29.2093 250.722 30.0613 251.418 30.7813C252.138 31.5013 252.978 32.0533 253.938 32.4373C254.898 32.8213 255.942 33.0133 257.07 33.0133ZM274.521 37.5493V12.3493H280.353V37.5493H274.521ZM285.613 37.5493V12.3493H290.437L305.305 30.4933H302.965V12.3493H308.725V37.5493H303.937L289.033 19.4053H291.373V37.5493H285.613Z" fill="#223578"/>
<path d="M138.65 47.5493L141.119 55.1508H149.112L142.646 59.8488L145.116 67.4503L138.65 62.7523L132.183 67.4503L134.653 59.8488L128.187 55.1508H136.18L138.65 47.5493Z" fill="#E42234"/>
<path d="M165.575 47.5493L168.045 55.1508H176.037L169.571 59.8488L172.041 67.4503L165.575 62.7523L159.108 67.4503L161.578 59.8488L155.112 55.1508H163.105L165.575 47.5493Z" fill="#E42234"/>
<path d="M192.5 47.5493L194.97 55.1508H202.963L196.496 59.8488L198.966 67.4503L192.5 62.7523L186.034 67.4503L188.504 59.8488L182.037 55.1508H190.03L192.5 47.5493Z" fill="#E42234"/>
<path d="M219.425 47.5493L221.895 55.1508H229.888L223.421 59.8488L225.891 67.4503L219.425 62.7523L212.959 67.4503L215.429 59.8488L208.962 55.1508H216.955L219.425 47.5493Z" fill="#E42234"/>
<path d="M246.35 47.5493L248.82 55.1508H256.813L250.347 59.8488L252.817 67.4503L246.35 62.7523L239.884 67.4503L242.354 59.8488L235.888 55.1508H243.88L246.35 47.5493Z" fill="#E42234"/>
</svg>
